<mxfile host="app.diagrams.net" agent="Mozilla/5.0 (Windows NT 10.0; Win64; x64) AppleWebKit/537.36 (KHTML, like Gecko) Chrome/131.0.0.0 Safari/537.36" version="25.0.3">
  <diagram id="C5RBs43oDa-KdzZeNtuy" name="Page-1">
    <mxGraphModel dx="1050" dy="557" grid="1" gridSize="10" guides="1" tooltips="1" connect="1" arrows="1" fold="1" page="1" pageScale="1" pageWidth="827" pageHeight="1169" math="0" shadow="0">
      <root>
        <mxCell id="WIyWlLk6GJQsqaUBKTNV-0" />
        <mxCell id="WIyWlLk6GJQsqaUBKTNV-1" parent="WIyWlLk6GJQsqaUBKTNV-0" />
        <mxCell id="XH6ducaOwsudey6WCHoV-2" value="" style="edgeStyle=orthogonalEdgeStyle;rounded=0;orthogonalLoop=1;jettySize=auto;html=1;" edge="1" parent="WIyWlLk6GJQsqaUBKTNV-1" source="XH6ducaOwsudey6WCHoV-0" target="XH6ducaOwsudey6WCHoV-1">
          <mxGeometry relative="1" as="geometry" />
        </mxCell>
        <mxCell id="XH6ducaOwsudey6WCHoV-0" value="Start" style="ellipse;whiteSpace=wrap;html=1;" vertex="1" parent="WIyWlLk6GJQsqaUBKTNV-1">
          <mxGeometry x="180" width="120" height="80" as="geometry" />
        </mxCell>
        <mxCell id="XH6ducaOwsudey6WCHoV-5" value="" style="edgeStyle=orthogonalEdgeStyle;rounded=0;orthogonalLoop=1;jettySize=auto;html=1;" edge="1" parent="WIyWlLk6GJQsqaUBKTNV-1" source="XH6ducaOwsudey6WCHoV-1" target="XH6ducaOwsudey6WCHoV-3">
          <mxGeometry relative="1" as="geometry" />
        </mxCell>
        <mxCell id="XH6ducaOwsudey6WCHoV-1" value="a,b,x&amp;nbsp;" style="rounded=0;whiteSpace=wrap;html=1;" vertex="1" parent="WIyWlLk6GJQsqaUBKTNV-1">
          <mxGeometry x="180" y="130" width="120" height="60" as="geometry" />
        </mxCell>
        <mxCell id="XH6ducaOwsudey6WCHoV-10" value="" style="edgeStyle=orthogonalEdgeStyle;rounded=0;orthogonalLoop=1;jettySize=auto;html=1;" edge="1" parent="WIyWlLk6GJQsqaUBKTNV-1" source="XH6ducaOwsudey6WCHoV-3" target="XH6ducaOwsudey6WCHoV-6">
          <mxGeometry relative="1" as="geometry" />
        </mxCell>
        <mxCell id="XH6ducaOwsudey6WCHoV-3" value="a,b" style="shape=parallelogram;perimeter=parallelogramPerimeter;whiteSpace=wrap;html=1;fixedSize=1;" vertex="1" parent="WIyWlLk6GJQsqaUBKTNV-1">
          <mxGeometry x="180" y="240" width="120" height="60" as="geometry" />
        </mxCell>
        <mxCell id="XH6ducaOwsudey6WCHoV-14" style="edgeStyle=orthogonalEdgeStyle;rounded=0;orthogonalLoop=1;jettySize=auto;html=1;exitX=0.5;exitY=1;exitDx=0;exitDy=0;entryX=0.5;entryY=0;entryDx=0;entryDy=0;" edge="1" parent="WIyWlLk6GJQsqaUBKTNV-1" source="XH6ducaOwsudey6WCHoV-6" target="XH6ducaOwsudey6WCHoV-11">
          <mxGeometry relative="1" as="geometry" />
        </mxCell>
        <mxCell id="XH6ducaOwsudey6WCHoV-15" style="edgeStyle=orthogonalEdgeStyle;rounded=0;orthogonalLoop=1;jettySize=auto;html=1;exitX=0.5;exitY=1;exitDx=0;exitDy=0;entryX=0.5;entryY=0;entryDx=0;entryDy=0;" edge="1" parent="WIyWlLk6GJQsqaUBKTNV-1" source="XH6ducaOwsudey6WCHoV-6" target="XH6ducaOwsudey6WCHoV-13">
          <mxGeometry relative="1" as="geometry" />
        </mxCell>
        <mxCell id="XH6ducaOwsudey6WCHoV-26" value="TRUE" style="edgeLabel;html=1;align=center;verticalAlign=middle;resizable=0;points=[];" vertex="1" connectable="0" parent="XH6ducaOwsudey6WCHoV-15">
          <mxGeometry x="-0.8185" y="1" relative="1" as="geometry">
            <mxPoint as="offset" />
          </mxGeometry>
        </mxCell>
        <mxCell id="XH6ducaOwsudey6WCHoV-24" style="edgeStyle=orthogonalEdgeStyle;rounded=0;orthogonalLoop=1;jettySize=auto;html=1;exitX=1;exitY=0.5;exitDx=0;exitDy=0;entryX=0.5;entryY=0;entryDx=0;entryDy=0;" edge="1" parent="WIyWlLk6GJQsqaUBKTNV-1" source="XH6ducaOwsudey6WCHoV-6" target="XH6ducaOwsudey6WCHoV-23">
          <mxGeometry relative="1" as="geometry" />
        </mxCell>
        <mxCell id="XH6ducaOwsudey6WCHoV-25" value="ELSE" style="edgeLabel;html=1;align=center;verticalAlign=middle;resizable=0;points=[];" vertex="1" connectable="0" parent="XH6ducaOwsudey6WCHoV-24">
          <mxGeometry x="-0.2136" y="2" relative="1" as="geometry">
            <mxPoint as="offset" />
          </mxGeometry>
        </mxCell>
        <mxCell id="XH6ducaOwsudey6WCHoV-6" value="a == 0" style="rhombus;whiteSpace=wrap;html=1;" vertex="1" parent="WIyWlLk6GJQsqaUBKTNV-1">
          <mxGeometry x="180" y="360" width="120" height="80" as="geometry" />
        </mxCell>
        <mxCell id="XH6ducaOwsudey6WCHoV-17" value="TRUE" style="edgeStyle=orthogonalEdgeStyle;rounded=0;orthogonalLoop=1;jettySize=auto;html=1;" edge="1" parent="WIyWlLk6GJQsqaUBKTNV-1" source="XH6ducaOwsudey6WCHoV-11">
          <mxGeometry relative="1" as="geometry">
            <mxPoint x="115" y="660" as="targetPoint" />
          </mxGeometry>
        </mxCell>
        <mxCell id="XH6ducaOwsudey6WCHoV-11" value="b != 0" style="rhombus;whiteSpace=wrap;html=1;" vertex="1" parent="WIyWlLk6GJQsqaUBKTNV-1">
          <mxGeometry x="50" y="520" width="130" height="80" as="geometry" />
        </mxCell>
        <mxCell id="XH6ducaOwsudey6WCHoV-19" value="TRUE" style="edgeStyle=orthogonalEdgeStyle;rounded=0;orthogonalLoop=1;jettySize=auto;html=1;" edge="1" parent="WIyWlLk6GJQsqaUBKTNV-1" source="XH6ducaOwsudey6WCHoV-13">
          <mxGeometry relative="1" as="geometry">
            <mxPoint x="365" y="660" as="targetPoint" />
          </mxGeometry>
        </mxCell>
        <mxCell id="XH6ducaOwsudey6WCHoV-13" value="b == 0" style="rhombus;whiteSpace=wrap;html=1;" vertex="1" parent="WIyWlLk6GJQsqaUBKTNV-1">
          <mxGeometry x="300" y="520" width="130" height="80" as="geometry" />
        </mxCell>
        <mxCell id="XH6ducaOwsudey6WCHoV-29" style="edgeStyle=orthogonalEdgeStyle;rounded=0;orthogonalLoop=1;jettySize=auto;html=1;exitX=0.5;exitY=1;exitDx=0;exitDy=0;" edge="1" parent="WIyWlLk6GJQsqaUBKTNV-1" source="XH6ducaOwsudey6WCHoV-20" target="XH6ducaOwsudey6WCHoV-28">
          <mxGeometry relative="1" as="geometry">
            <Array as="points">
              <mxPoint x="115" y="910" />
            </Array>
          </mxGeometry>
        </mxCell>
        <mxCell id="XH6ducaOwsudey6WCHoV-20" value="Vô nghiệm" style="shape=parallelogram;perimeter=parallelogramPerimeter;whiteSpace=wrap;html=1;fixedSize=1;" vertex="1" parent="WIyWlLk6GJQsqaUBKTNV-1">
          <mxGeometry x="55" y="660" width="120" height="60" as="geometry" />
        </mxCell>
        <mxCell id="XH6ducaOwsudey6WCHoV-31" style="edgeStyle=orthogonalEdgeStyle;rounded=0;orthogonalLoop=1;jettySize=auto;html=1;exitX=0.5;exitY=1;exitDx=0;exitDy=0;endArrow=classic;endFill=1;entryX=0.5;entryY=0;entryDx=0;entryDy=0;" edge="1" parent="WIyWlLk6GJQsqaUBKTNV-1" source="XH6ducaOwsudey6WCHoV-21" target="XH6ducaOwsudey6WCHoV-28">
          <mxGeometry relative="1" as="geometry">
            <mxPoint x="365" y="800" as="targetPoint" />
          </mxGeometry>
        </mxCell>
        <mxCell id="XH6ducaOwsudey6WCHoV-21" value="Nghiệm đúng với mọi x" style="shape=parallelogram;perimeter=parallelogramPerimeter;whiteSpace=wrap;html=1;fixedSize=1;" vertex="1" parent="WIyWlLk6GJQsqaUBKTNV-1">
          <mxGeometry x="290" y="660" width="150" height="60" as="geometry" />
        </mxCell>
        <mxCell id="XH6ducaOwsudey6WCHoV-30" style="edgeStyle=orthogonalEdgeStyle;rounded=0;orthogonalLoop=1;jettySize=auto;html=1;exitX=0.5;exitY=1;exitDx=0;exitDy=0;" edge="1" parent="WIyWlLk6GJQsqaUBKTNV-1" source="XH6ducaOwsudey6WCHoV-22" target="XH6ducaOwsudey6WCHoV-28">
          <mxGeometry relative="1" as="geometry">
            <Array as="points">
              <mxPoint x="640" y="910" />
            </Array>
          </mxGeometry>
        </mxCell>
        <mxCell id="XH6ducaOwsudey6WCHoV-22" value="x" style="shape=parallelogram;perimeter=parallelogramPerimeter;whiteSpace=wrap;html=1;fixedSize=1;" vertex="1" parent="WIyWlLk6GJQsqaUBKTNV-1">
          <mxGeometry x="580" y="660" width="120" height="60" as="geometry" />
        </mxCell>
        <mxCell id="XH6ducaOwsudey6WCHoV-27" value="" style="edgeStyle=orthogonalEdgeStyle;rounded=0;orthogonalLoop=1;jettySize=auto;html=1;" edge="1" parent="WIyWlLk6GJQsqaUBKTNV-1" source="XH6ducaOwsudey6WCHoV-23" target="XH6ducaOwsudey6WCHoV-22">
          <mxGeometry relative="1" as="geometry" />
        </mxCell>
        <mxCell id="XH6ducaOwsudey6WCHoV-23" value="&amp;nbsp;x = -b / a" style="rounded=0;whiteSpace=wrap;html=1;" vertex="1" parent="WIyWlLk6GJQsqaUBKTNV-1">
          <mxGeometry x="580" y="530" width="120" height="60" as="geometry" />
        </mxCell>
        <mxCell id="XH6ducaOwsudey6WCHoV-28" value="End" style="ellipse;whiteSpace=wrap;html=1;" vertex="1" parent="WIyWlLk6GJQsqaUBKTNV-1">
          <mxGeometry x="305" y="870" width="120" height="80" as="geometry" />
        </mxCell>
      </root>
    </mxGraphModel>
  </diagram>
</mxfile>
